# xmcd
#
# Track frame offsets: 
#        150
#        14315
#        25981
#        37756
#        49857
#        62036
#        74490
#        87719
#        99959
#        111326
#        123275
#        134754
#        146655
#        157638
#        171398
#        183718
#        197426
#        208295
#        219037
#        230887
#        242379
#        254373
#        264001
#        278440
#
# Disc length: 3864 seconds
#
# Revision: 2
# Processed by: cddbd v1.5.1PL0 Copyright (c) Steve Scherf et al.
# Submitted via: ExactAudioCopy v0.95a5
#
DISCID=570f1618
DTITLE=Various Artist - Honky Tonk! The Best Of King and Federal R&B Instrument
DTITLE=als
DYEAR=2000
DGENRE=R&B/Soul
TTITLE0=Bill Doggett - Honky Tonk (Part 1)
TTITLE1=Bill Doggett - Honky Tonk (Part 2)
TTITLE2=Freddy King - Hide Away
TTITLE3=Todd Rhodes Orchestra - Blues For The Red Boy
TTITLE4=Earl Bostic and His Orchestra - Flamingo
TTITLE5=Sonny Thompson with The Sharps and Flats - Long Gone (Part 1)
TTITLE6=Sonny Thompson with The Sharps and Flats - Long Gone (Part 2)
TTITLE7=Washboard Bill with Mickey Baker and King Curtis - Pot Likker
TTITLE8=Cal Green and His Orchestra - The Big Push
TTITLE9=Jimmy Nolen - After Hours
TTITLE10=Bill Doggett - Slow Walk
TTITLE11=Freddy King - San-Ho-Zay
TTITLE12=Washboard Bill with Mickey Baker and King Curtis - Washboard St
TTITLE12=ory
TTITLE13=Johnny Otis with Johnny ''Guitar'' Watson - Early In The Morn
TTITLE13=ing Blues
TTITLE14=Cal Green and His Orchestra - Green's Blues
TTITLE15=Roy Gaines - Gainesville
TTITLE16=Jimmy Nolen - Strollin' With Nolen
TTITLE17=Washboard Bill with Mickey Baker and King Curtis - In The Morni
TTITLE17=ng
TTITLE18=Young John Watson - Space Guitar
TTITLE19=Pete ''Guitar'' Lewis - Louisiana Hop
TTITLE20=Washboard Bill with Mickey Baker and King Curtis - River Boat D
TTITLE20=ock
TTITLE21=Johnny Otis with Johnny ''Guitar''Watson - Let's Rock (Let's 
TTITLE21=Surf Awhile)
TTITLE22=Freddy King - The Stumble
TTITLE23=Bill Doggett - Hold It
EXTD=YEAR: 2000
EXTT0=
EXTT1=
EXTT2=
EXTT3=
EXTT4=
EXTT5=
EXTT6=
EXTT7=
EXTT8=
EXTT9=
EXTT10=
EXTT11=
EXTT12=
EXTT13=
EXTT14=
EXTT15=
EXTT16=
EXTT17=
EXTT18=
EXTT19=
EXTT20=
EXTT21=
EXTT22=
EXTT23=
PLAYORDER=
